<?xml version="1.0" standalone="no"?>
<svg xmlns:xlink="http://www.w3.org/1999/xlink" id="wave" style="transform:rotate(0deg); transition: 0.3s" viewBox="0 0 1440 390" version="1.1" xmlns="http://www.w3.org/2000/svg"><defs><linearGradient id="sw-gradient-0" x1="0" x2="0" y1="1" y2="0"><stop stop-color="rgba(127, 91, 196, 1)" offset="0%"/><stop stop-color="rgba(96, 163, 230, 1)" offset="100%"/></linearGradient></defs><path style="transform:translate(0, 0px); opacity:1" fill="url(#sw-gradient-0)" d="M0,351L48,318.5C96,286,192,221,288,214.5C384,208,480,260,576,286C672,312,768,312,864,312C960,312,1056,312,1152,286C1248,260,1344,208,1440,201.5C1536,195,1632,234,1728,234C1824,234,1920,195,2016,169C2112,143,2208,130,2304,104C2400,78,2496,39,2592,52C2688,65,2784,130,2880,136.5C2976,143,3072,91,3168,97.5C3264,104,3360,169,3456,169C3552,169,3648,104,3744,104C3840,104,3936,169,4032,169C4128,169,4224,104,4320,123.5C4416,143,4512,247,4608,266.5C4704,286,4800,221,4896,182C4992,143,5088,130,5184,162.5C5280,195,5376,273,5472,305.5C5568,338,5664,325,5760,325C5856,325,5952,338,6048,325C6144,312,6240,273,6336,221C6432,169,6528,104,6624,117C6720,130,6816,221,6864,266.5L6912,312L6912,390L6864,390C6816,390,6720,390,6624,390C6528,390,6432,390,6336,390C6240,390,6144,390,6048,390C5952,390,5856,390,5760,390C5664,390,5568,390,5472,390C5376,390,5280,390,5184,390C5088,390,4992,390,4896,390C4800,390,4704,390,4608,390C4512,390,4416,390,4320,390C4224,390,4128,390,4032,390C3936,390,3840,390,3744,390C3648,390,3552,390,3456,390C3360,390,3264,390,3168,390C3072,390,2976,390,2880,390C2784,390,2688,390,2592,390C2496,390,2400,390,2304,390C2208,390,2112,390,2016,390C1920,390,1824,390,1728,390C1632,390,1536,390,1440,390C1344,390,1248,390,1152,390C1056,390,960,390,864,390C768,390,672,390,576,390C480,390,384,390,288,390C192,390,96,390,48,390L0,390Z"/></svg>